# xmcd
#
# Track frame offsets:
#	150
#	61617
#	92817
#	167226
#	189276
#	235229
#	282399
#	300581
#	321887
#	338163
#
# Disc length: 4714 seconds
#
# Revision: 2
# Processed by: cddbd v1.5.2PL0 Copyright (c) Steve Scherf et al.
# Submitted via: audiograbber 1.83.01
#
DISCID=8312680a
DTITLE=Various Artist - Symphonie Fantastique
DYEAR=2012
DGENRE=Classical
TTITLE0=Orchestre National de France - Leonard Bernstein - Hector Berlioz: Symp
TTITLE0=honie fantastique, Op. 14: I. Träumereien, Leidenschaften
TTITLE1=Orchestre National de France - Leonard Bernstein - Hector Berlioz: Symp
TTITLE1=honie fantastique, Op. 14: II. Ein Ball
TTITLE2=Orchestre National de France - Leonard Bernstein - Hector Berlioz: Symp
TTITLE2=honie fantastique, Op. 14: III. Szene auf dem Lande
TTITLE3=Orchestre National de France - Leonard Bernstein - Hector Berlioz: Symp
TTITLE3=honie fantastique, Op. 14: IV. Der Gang zum Richtplatz
TTITLE4=Orchestre National de France - Leonard Bernstein - Hector Berlioz: Symp
TTITLE4=honie fantastique, Op. 14: V. Hexensabbat
TTITLE5=Bergen Philharmonic Orchestra - Dmitri Kitayenko - Claude Debussy: Vors
TTITLE5=piel zum Nachmittag eines Fauns
TTITLE6=Bergen Philharmonic Orchestra - Dmitri Kitayenko - Maurice Ravel: Ma Mè
TTITLE6=re l'Oye: Der Feengarten
TTITLE7=Bergen Philharmonic Orchestra - Dmitri Kitayenko - Igor Strawinsky: Der
TTITLE7=Feuervogel - Höllentanz des Königs Kastschej
TTITLE8=Bergen Philharmonic Orchestra - Dmitri Kitayenko - Igor Strawinsky: Der
TTITLE8=Feuervogel - Wiegenlied
TTITLE9=Bergen Philharmonic Orchestra - Dmitri Kitayenko - Igor Strawinsky: Der
TTITLE9=Feuervogel - Finale
EXTD=
EXTT0=
EXTT1=
EXTT2=
EXTT3=
EXTT4=
EXTT5=
EXTT6=
EXTT7=
EXTT8=
EXTT9=
PLAYORDER=
